<svg xmlns="http://www.w3.org/2000/svg" viewBox="0 0 103.82 166"><defs><style>.cls-1,.cls-3{fill:#fff;}.cls-2{fill:#2ea5f5;}.cls-3{stroke:#2ea5f5;stroke-miterlimit:10;stroke-width:7px;}</style></defs><title>Asset 2</title><g id="Layer_2" data-name="Layer 2"><g id="Layer_1-2" data-name="Layer 1"><path class="cls-1" d="M52.42,159.16C41.33,140.56,3.5,75.38,3.5,51.91a48.41,48.41,0,0,1,96.82,0C100.32,75.38,63.3,140.53,52.42,159.16Zm-.51-147A32.16,32.16,0,1,0,84.07,44.34,32.19,32.19,0,0,0,51.91,12.18Z"/><path class="cls-2" d="M51.91,7A45,45,0,0,1,96.82,51.91c0,19.27-28.12,72.08-44.43,100.38C35.74,124,7,71.17,7,51.91A45,45,0,0,1,51.91,7m0,73A35.66,35.66,0,1,0,16.25,44.34,35.7,35.7,0,0,0,51.91,80m0-80A51.91,51.91,0,0,0,0,51.91C0,80.58,52.45,166,52.45,166s51.37-85.42,51.37-114.09A51.91,51.91,0,0,0,51.91,0Zm0,73A28.66,28.66,0,1,1,80.57,44.34,28.66,28.66,0,0,1,51.91,73Z"/><path class="cls-3" d="M46.23,86.51,46,113.34c0,4.45,4.39,8.05,9.8,8.05H67"/></g></g></svg>