<svg xmlns="http://www.w3.org/2000/svg" viewBox="0 0 192 307"><defs><style>.cls-1,.cls-3{fill:#fff;}.cls-2{fill:#2ea5f5;}.cls-3{stroke:#2ea5f5;stroke-miterlimit:10;stroke-width:7px;}</style></defs><title>Asset 1</title><g id="Layer_2" data-name="Layer 2"><g id="Layer_1-2" data-name="Layer 1"><path class="cls-1" d="M97,300.19C80.62,273,3.5,142.21,3.5,96a92.5,92.5,0,0,1,185,0C188.5,142.21,113,272.93,97,300.19ZM96,25.5A56.5,56.5,0,1,0,152.5,82,56.56,56.56,0,0,0,96,25.5Z"/><path class="cls-2" d="M96,7a89.1,89.1,0,0,1,89,89c0,14.34-8.1,47.16-46.69,122.11-16.34,31.74-32.84,60.59-41.37,75.21-8.7-14.6-25.57-43.49-42.28-75.27C15.27,143.13,7,110.32,7,96A89.1,89.1,0,0,1,96,7m0,135A60,60,0,1,0,36,82a60.07,60.07,0,0,0,60,60M96,0A96,96,0,0,0,0,96c0,53,97,211,97,211s95-158,95-211A96,96,0,0,0,96,0Zm0,135a53,53,0,1,1,53-53,53,53,0,0,1-53,53Z"/><path class="cls-3" d="M85.5,160,85,209.61c0,8.22,8.11,14.89,18.13,14.89H124"/></g></g></svg>